<?xml version="1.0" encoding="UTF-8" standalone="no"?>
<!-- Created with Inkscape (http://www.inkscape.org/) -->

<svg
   xmlns:dc="http://purl.org/dc/elements/1.1/"
   xmlns:cc="http://creativecommons.org/ns#"
   xmlns:rdf="http://www.w3.org/1999/02/22-rdf-syntax-ns#"
   xmlns:svg="http://www.w3.org/2000/svg"
   xmlns="http://www.w3.org/2000/svg"
   xmlns:sodipodi="http://sodipodi.sourceforge.net/DTD/sodipodi-0.dtd"
   xmlns:inkscape="http://www.inkscape.org/namespaces/inkscape"
   width="420mm"
   height="148mm"
   viewBox="0 0 420 148"
   version="1.1"
   id="svg8"
   inkscape:version="0.92.3 (2405546, 2018-03-11)"
   sodipodi:docname="cover-inside.svg"
   inkscape:export-filename="C:\Users\Tyler\Documents\srobo\competetor-booklet-2019\Front-cover.png"
   inkscape:export-xdpi="100.008"
   inkscape:export-ydpi="100.008">
  <defs
     id="defs2">
    <style
       id="style4732">
      .cls-1 {
        font-size: 29.46px;
        font-family: Oswald-Regular, Oswald;
      }

      .cls-1, .cls-2, .cls-3, .cls-4, .cls-5 {
        fill: #fff;
      }

      .cls-2, .cls-3 {
        stroke: #fff;
      }

      .cls-3 {
        stroke-miterlimit: 10;
      }

      .cls-5 {
        font-size: 93.57px;
        font-family: Quicksand-Regular, Quicksand;
      }

      .cls-6 {
        letter-spacing: -0.01em;
      }

      .cls-7 {
        letter-spacing: -0.02em;
      }
    </style>
  </defs>
  <sodipodi:namedview
     id="base"
     pagecolor="#ffffff"
     bordercolor="#666666"
     borderopacity="1.0"
     inkscape:pageopacity="0.0"
     inkscape:pageshadow="2"
     inkscape:zoom="0.7"
     inkscape:cx="830.14096"
     inkscape:cy="362.07535"
     inkscape:document-units="mm"
     inkscape:current-layer="layer1"
     showgrid="true"
     width="420mm"
     showguides="true"
     inkscape:guide-bbox="true"
     inkscape:snap-text-baseline="true"
     inkscape:window-width="1680"
     inkscape:window-height="987"
     inkscape:window-x="-8"
     inkscape:window-y="-8"
     inkscape:window-maximized="1"
     inkscape:snap-bbox="false"
     inkscape:snap-nodes="false"
     inkscape:bbox-nodes="true">
    <sodipodi:guide
       position="210,0"
       orientation="1,0"
       id="guide817"
       inkscape:locked="false"
       inkscape:label=""
       inkscape:color="rgb(0,0,255)" />
    <inkscape:grid
       type="xygrid"
       id="grid830" />
  </sodipodi:namedview>
  <metadata
     id="metadata5">
    <rdf:RDF>
      <cc:Work
         rdf:about="">
        <dc:format>image/svg+xml</dc:format>
        <dc:type
           rdf:resource="http://purl.org/dc/dcmitype/StillImage" />
        <dc:title></dc:title>
      </cc:Work>
    </rdf:RDF>
  </metadata>
  <g
     inkscape:label="Layer 1"
     inkscape:groupmode="layer"
     id="layer1"
     transform="translate(0,-149)">
    <text
       xml:space="preserve"
       style="font-style:normal;font-variant:normal;font-weight:normal;font-stretch:normal;font-size:6.3499999px;line-height:125%;font-family:'Open Sans';-inkscape-font-specification:'Open Sans';text-align:start;letter-spacing:0px;word-spacing:0px;text-anchor:start;fill:#000000;fill-opacity:1;stroke:none;stroke-width:0.26458332px;stroke-linecap:butt;stroke-linejoin:miter;stroke-opacity:1"
       x="10.583333"
       y="167.35416"
       id="text4712"><tspan
         sodipodi:role="line"
         id="tspan4710"
         x="10.583333"
         y="167.35416"
         style="text-align:start;text-anchor:start;stroke-width:0.26458332px">Message from the Core team goes here</tspan></text>
    <text
       xml:space="preserve"
       style="font-style:normal;font-variant:normal;font-weight:normal;font-stretch:normal;font-size:6.3499999px;line-height:125%;font-family:'Open Sans';-inkscape-font-specification:'Open Sans';text-align:start;letter-spacing:0px;word-spacing:0px;text-anchor:start;fill:#000000;fill-opacity:1;stroke:none;stroke-width:0.26458332px;stroke-linecap:butt;stroke-linejoin:miter;stroke-opacity:1"
       x="10.583333"
       y="233.5"
       id="text4712-9"><tspan
         sodipodi:role="line"
         id="tspan4710-7"
         x="10.583333"
         y="233.5"
         style="text-align:start;text-anchor:start;stroke-width:0.26458332px">Message from the Trustees goes here</tspan></text>
    <g
       style="fill:#000000"
       id="layer1-2"
       transform="matrix(0.15425484,0,0,0.15425484,204.69852,130.43772)">
      <path
         style="fill:#000000;stroke:#ffffff"
         inkscape:connector-curvature="0"
         id="path184"
         class="cls-2"
         d="M 378.28,557.25 V 402.72"
         transform="translate(-65.97,-25.58)" />
      <path
         style="fill:#000000;stroke:#ffffff;stroke-miterlimit:10"
         inkscape:connector-curvature="0"
         class="cls-3"
         d="m 239.9,402.62 c -42.44,0 -76.8,34.54 -76.8,77.18 0,42.64 34.36,77.2 76.8,77.2 42.44,0 76.82,-34.56 76.82,-77.21 A 76.8,76.8 0 0 0 239.9,402.62 Z m 44.25,113.46 c 0,0 -3.54,-16 -9.26,-25.48 -3.06,-5.17 -7.86,-9.41 -14.27,-9.31 -4.5,0.11 -8.39,2.6 -13.29,9.45 -2.92,4.09 -7.47,14.55 -7.47,14.55 0,0 -4.49,-10.46 -7.42,-14.55 -4.9,-6.85 -8.79,-9.34 -13.27,-9.45 -6.41,-0.1 -11.22,4.14 -14.31,9.31 -5.71,9.52 -9.23,25.48 -9.23,25.48 h -5.22 l 27.82,-91.74 21.48,71.66 0.19,0.19 0.18,-0.19 21.47,-71.63 27.82,91.74 z"
         transform="translate(-65.97,-25.58)"
         id="path4741" />
      <g
         style="fill:#000000"
         id="g3108">
        <g
           style="fill:#000000"
           id="text190">
          <path
             style="fill:#000000;stroke:#ffffff;stroke-miterlimit:10"
             inkscape:connector-curvature="0"
             id="path3377"
             class="cls-3"
             d="m 461.2,442.11 a 9.51,9.51 0 0 1 3.91,-4.87 11,11 0 0 1 6,-1.59 7,7 0 0 1 5.58,2.45 c 1.41,1.62 2.12,4.55 2.12,8.77 V 463 h -2.17 v -16 q 0,-5.53 -1.52,-7.49 a 4.9,4.9 0 0 0 -4.06,-1.95 10.05,10.05 0 0 0 -6.48,2.26 c -2.05,1.64 -3.07,4.32 -3.07,8.06 V 463 h -2.2 v -16 c 0,-3.56 -0.49,-6 -1.47,-7.39 a 4.78,4.78 0 0 0 -4.1,-2.05 10,10 0 0 0 -6.49,2.29 q -3.08,2.44 -3.07,8 V 463 H 442 v -26.7 h 2.2 v 5 a 9.17,9.17 0 0 1 3.62,-4.15 11.54,11.54 0 0 1 6.08,-1.5 7.53,7.53 0 0 1 4.5,1.57 c 1.1,0.78 2.03,2.44 2.8,4.89 z"
             transform="translate(-65.97,-25.58)" />
        </g>
        <g
           style="fill:#000000"
           id="text194">
          <path
             style="fill:#000000;stroke:#ffffff;stroke-miterlimit:10"
             inkscape:connector-curvature="0"
             id="path3380"
             class="cls-3"
             d="m 502.72,440.87 a 8,8 0 0 0 -12.87,0 c -1.59,2.16 -2.38,5.09 -2.38,8.77 0,3.68 0.78,6.76 2.36,8.92 a 8,8 0 0 0 12.89,0 c 1.59,-2.19 2.38,-5.17 2.38,-8.92 a 14.57,14.57 0 0 0 -2.38,-8.77 z m -6.46,-5.22 a 9.65,9.65 0 0 1 8.06,3.81 q 3,3.84 3,10.18 0,6.56 -3,10.34 a 9.64,9.64 0 0 1 -8.06,3.82 9.81,9.81 0 0 1 -8.13,-3.79 q -3,-3.79 -2.95,-10.37 0,-6.42 3,-10.2 a 9.73,9.73 0 0 1 8.08,-3.79 z"
             transform="translate(-65.97,-25.58)" />
        </g>
        <g
           style="fill:#000000"
           id="text198">
          <path
             style="fill:#000000;stroke:#ffffff;stroke-miterlimit:10"
             inkscape:connector-curvature="0"
             id="path3383"
             class="cls-3"
             d="m 517.76,428.71 v 7.58 h 9 v 1.86 h -9 v 16 a 8.41,8.41 0 0 0 0.79,4.27 5.19,5.19 0 0 0 4.72,2.67 h 3.53 V 463 h -3.41 a 8.37,8.37 0 0 1 -5.55,-1.91 q -2.3,-1.9 -2.29,-6.89 v -16 h -3.2 v -1.86 h 3.2 v -7.58 z"
             transform="translate(-65.97,-25.58)" />
        </g>
        <g
           style="fill:#000000"
           id="text202">
          <path
             style="fill:#000000;stroke:#ffffff;stroke-miterlimit:10"
             inkscape:connector-curvature="0"
             id="path3386"
             class="cls-3"
             d="m 549.05,440.87 a 8,8 0 0 0 -12.88,0 c -1.58,2.16 -2.38,5.09 -2.38,8.77 0,3.68 0.79,6.76 2.36,8.92 a 8,8 0 0 0 12.9,0 c 1.58,-2.19 2.38,-5.17 2.38,-8.92 a 14.64,14.64 0 0 0 -2.38,-8.77 z m -6.46,-5.22 a 9.64,9.64 0 0 1 8,3.81 q 3,3.84 3,10.18 0,6.56 -3,10.34 a 9.62,9.62 0 0 1 -8,3.82 9.79,9.79 0 0 1 -8.13,-3.79 q -3,-3.79 -3,-10.37 0,-6.42 3,-10.2 a 9.76,9.76 0 0 1 8.13,-3.79 z"
             transform="translate(-65.97,-25.58)" />
        </g>
        <g
           style="fill:#000000"
           id="text206">
          <path
             style="fill:#000000;stroke:#ffffff;stroke-miterlimit:10"
             inkscape:connector-curvature="0"
             id="path3389"
             class="cls-3"
             d="m 576.27,438.17 a 6.55,6.55 0 0 0 -1.43,-0.45 12.73,12.73 0 0 0 -2.05,-0.14 8.61,8.61 0 0 0 -6.72,3 Q 564,443 564,448.92 V 463 h -2.15 V 436.3 H 564 v 5 a 10.52,10.52 0 0 1 3,-3.63 10.12,10.12 0 0 1 6.3,-2 15.34,15.34 0 0 1 1.62,0.07 5.32,5.32 0 0 1 1.38,0.17 v 2.28 z"
             transform="translate(-65.97,-25.58)" />
        </g>
        <g
           style="fill:#000000"
           id="text210">
          <path
             style="fill:#000000;stroke:#ffffff;stroke-miterlimit:10"
             inkscape:connector-curvature="0"
             id="path3392"
             class="cls-3"
             d="m 595.37,440.87 a 8,8 0 0 0 -12.87,0 c -1.59,2.16 -2.38,5.09 -2.38,8.77 0,3.68 0.78,6.76 2.36,8.92 a 8,8 0 0 0 12.89,0 c 1.59,-2.19 2.39,-5.17 2.39,-8.92 a 14.57,14.57 0 0 0 -2.39,-8.77 z m -6.46,-5.22 a 9.65,9.65 0 0 1 8.06,3.81 q 3,3.84 3,10.18 0,6.56 -3,10.34 a 9.64,9.64 0 0 1 -8.06,3.82 9.81,9.81 0 0 1 -8.13,-3.79 q -3,-3.79 -2.95,-10.37 0,-6.42 3,-10.2 a 9.74,9.74 0 0 1 8.08,-3.79 z"
             transform="translate(-65.97,-25.58)" />
        </g>
        <g
           style="fill:#000000"
           id="text214">
          <path
             style="fill:#000000;stroke:#ffffff;stroke-miterlimit:10"
             inkscape:connector-curvature="0"
             id="path3395"
             class="cls-3"
             d="m 608.1,425.9 h 2.2 V 463 h -2.2 z"
             transform="translate(-65.97,-25.58)" />
        </g>
        <g
           style="fill:#000000"
           id="text218">
          <path
             style="fill:#000000;stroke:#ffffff;stroke-miterlimit:10"
             inkscape:connector-curvature="0"
             id="path3398"
             class="cls-3"
             d="m 631.08,447.92 q -5.3,0 -7.62,1.88 a 6.67,6.67 0 0 0 -2.34,5.51 q 0,3.53 1.93,5 a 7.34,7.34 0 0 0 4.58,1.47 7.49,7.49 0 0 0 7.19,-4.24 17.31,17.31 0 0 0 2.22,-8 v -1.65 z m 8.18,-0.16 V 463 h -2.17 v -7.25 c -1.22,3.54 -2.85,5.8 -4.86,6.77 a 10.93,10.93 0 0 1 -4.79,1.17 8.86,8.86 0 0 1 -6.27,-2.12 q -2.29,-2.15 -2.29,-6.3 a 8.16,8.16 0 0 1 3,-6.62 q 3,-2.5 9.75,-2.51 H 637 v -0.42 a 8.47,8.47 0 0 0 -2,-5.84 q -2,-2.3 -6.63,-2.29 a 13.53,13.53 0 0 0 -4.67,0.86 18.57,18.57 0 0 0 -4,2.21 v -2.36 a 17,17 0 0 1 4,-1.86 18.26,18.26 0 0 1 5.12,-0.78 10.88,10.88 0 0 1 7.77,2.86 c 1.79,1.62 2.67,4.71 2.67,9.24 z"
             transform="translate(-65.97,-25.58)" />
        </g>
        <g
           style="fill:#000000"
           id="text222">
          <path
             style="fill:#000000;stroke:#ffffff;stroke-miterlimit:10"
             inkscape:connector-curvature="0"
             id="path3401"
             class="cls-3"
             d="m 453.47,482.85 v 1.86 h -3.1 a 5.07,5.07 0 0 0 -3.71,1.26 c -1.05,1 -1.58,2.67 -1.58,4.91 v 2.36 h 7.2 v 1.86 h -7.2 v 24.84 h -2.21 V 495.1 h -4.2 v -1.86 h 4.2 v -1.86 q 0,-4.45 2,-6.48 a 7.37,7.37 0 0 1 5.53,-2 z"
             transform="translate(-65.97,-25.58)" />
        </g>
        <g
           style="fill:#000000"
           id="text226">
          <path
             style="fill:#000000;stroke:#ffffff;stroke-miterlimit:10"
             inkscape:connector-curvature="0"
             id="path3404"
             class="cls-3"
             d="m 475.58,497.82 a 8,8 0 0 0 -12.87,0 q -2.38,3.24 -2.39,8.77 -0.01,5.53 2.36,8.91 a 8,8 0 0 0 12.9,0 q 2.39,-3.29 2.38,-8.91 a 14.58,14.58 0 0 0 -2.38,-8.77 z m -6.46,-5.22 a 9.65,9.65 0 0 1 8.06,3.81 q 3,3.84 3,10.18 0,6.56 -3,10.35 a 9.65,9.65 0 0 1 -8.06,3.81 A 9.78,9.78 0 0 1 461,517 q -3,-3.8 -2.95,-10.37 0,-6.4 3,-10.2 a 9.73,9.73 0 0 1 8.07,-3.83 z"
             transform="translate(-65.97,-25.58)" />
        </g>
        <g
           style="fill:#000000"
           id="text230">
          <path
             style="fill:#000000;stroke:#ffffff;stroke-miterlimit:10"
             inkscape:connector-curvature="0"
             id="path3407"
             class="cls-3"
             d="m 488.31,509.36 v -16.12 h 2.19 v 16 q 0,5.2 1.67,7.32 a 5.88,5.88 0 0 0 4.91,2.12 9.68,9.68 0 0 0 6.49,-2.29 q 2.71,-2.31 2.71,-8 v -15.15 h 2.2 v 26.7 h -2.2 v -5 a 9.15,9.15 0 0 1 -3.07,3.72 10.74,10.74 0 0 1 -6.22,1.93 8,8 0 0 1 -6.32,-2.69 c -1.57,-1.79 -2.36,-4.64 -2.36,-8.54 z"
             transform="translate(-65.97,-25.58)" />
        </g>
        <g
           style="fill:#000000"
           id="text234">
          <path
             style="fill:#000000;stroke:#ffffff;stroke-miterlimit:10"
             inkscape:connector-curvature="0"
             id="path3410"
             class="cls-3"
             d="m 537.08,503.83 v 16.11 h -2.19 V 504 c 0,-3.47 -0.56,-5.9 -1.67,-7.32 a 5.88,5.88 0 0 0 -4.91,-2.12 9.63,9.63 0 0 0 -6.48,2.29 c -1.82,1.54 -2.72,4.22 -2.72,8 v 15.09 h -2.19 v -26.7 h 2.19 v 5 a 9.15,9.15 0 0 1 3.07,-3.72 10.74,10.74 0 0 1 6.22,-1.93 8,8 0 0 1 6.32,2.69 q 2.35,2.72 2.36,8.55 z"
             transform="translate(-65.97,-25.58)" />
        </g>
        <g
           style="fill:#000000"
           id="text238">
          <path
             style="fill:#000000;stroke:#ffffff;stroke-miterlimit:10"
             inkscape:connector-curvature="0"
             id="path3413"
             class="cls-3"
             d="m 565,499.34 v -16.49 h 2.14 v 37.09 H 565 v -6.06 a 11.4,11.4 0 0 1 -3.27,4.77 8.71,8.71 0 0 1 -5.07,2 9.76,9.76 0 0 1 -7.89,-3.86 q -3.15,-3.87 -3.15,-10.16 0,-6.29 3.15,-10.15 a 9.76,9.76 0 0 1 7.89,-3.86 8.71,8.71 0 0 1 5.07,2 11.36,11.36 0 0 1 3.27,4.72 z m -14.3,-2 q -2.77,2.79 -2.77,9.29 0,6.5 2.77,9.3 a 7.35,7.35 0 0 0 11.53,0 q 2.75,-2.79 2.74,-9.3 -0.01,-6.51 -2.74,-9.29 a 7.35,7.35 0 0 0 -11.53,0 z"
             transform="translate(-65.97,-25.58)" />
        </g>
        <g
           style="fill:#000000"
           id="text242">
          <path
             style="fill:#000000;stroke:#ffffff;stroke-miterlimit:10"
             inkscape:connector-curvature="0"
             id="path3416"
             class="cls-3"
             d="m 584.81,504.87 q -5.29,0 -7.63,1.89 a 6.64,6.64 0 0 0 -2.34,5.5 c 0,2.36 0.65,4 1.93,5 a 7.37,7.37 0 0 0 4.58,1.48 7.5,7.5 0 0 0 7.2,-4.25 17.26,17.26 0 0 0 2.21,-8 v -1.65 z m 8.17,-0.16 v 15.23 h -2.17 v -7.25 c -1.22,3.55 -2.84,5.8 -4.86,6.77 a 10.89,10.89 0 0 1 -4.79,1.17 8.9,8.9 0 0 1 -6.27,-2.12 q -2.29,-2.14 -2.29,-6.29 a 8.2,8.2 0 0 1 3,-6.63 q 3,-2.5 9.75,-2.5 h 5.43 v -0.43 a 8.47,8.47 0 0 0 -2,-5.84 c -1.34,-1.53 -3.54,-2.29 -6.63,-2.29 a 13.81,13.81 0 0 0 -4.67,0.86 18.57,18.57 0 0 0 -4,2.21 v -2.35 a 16.54,16.54 0 0 1 4,-1.86 18,18 0 0 1 5.13,-0.79 10.91,10.91 0 0 1 7.77,2.86 q 2.62,2.46 2.62,9.25 z"
             transform="translate(-65.97,-25.58)" />
        </g>
        <g
           style="fill:#000000"
           id="text246">
          <path
             style="fill:#000000;stroke:#ffffff;stroke-miterlimit:10"
             inkscape:connector-curvature="0"
             id="path3419"
             class="cls-3"
             d="m 602.31,485.66 v 7.58 h 9 v 1.86 h -9 v 16 a 8.28,8.28 0 0 0 0.79,4.27 5.19,5.19 0 0 0 4.72,2.67 h 3.53 v 1.86 h -3.41 a 8.42,8.42 0 0 1 -5.56,-1.91 c -1.52,-1.27 -2.29,-3.57 -2.29,-6.89 v -16 h -3.19 v -1.86 h 3.19 v -7.58 z"
             transform="translate(-65.97,-25.58)" />
        </g>
        <g
           style="fill:#000000"
           id="text250">
          <path
             style="fill:#000000;stroke:#ffffff;stroke-miterlimit:10"
             inkscape:connector-curvature="0"
             id="path3422"
             class="cls-3"
             d="m 617.67,493.24 h 2.19 v 26.7 h -2.19 z m 0,-10.39 h 2.19 v 3 h -2.19 z"
             transform="translate(-65.97,-25.58)" />
        </g>
        <g
           style="fill:#000000"
           id="text254">
          <path
             style="fill:#000000;stroke:#ffffff;stroke-miterlimit:10"
             inkscape:connector-curvature="0"
             id="path3425"
             class="cls-3"
             d="m 645.9,497.82 a 8,8 0 0 0 -12.88,0 q -2.38,3.24 -2.38,8.77 0,5.53 2.36,8.91 a 8,8 0 0 0 12.9,0 c 1.58,-2.19 2.38,-5.16 2.38,-8.91 a 14.65,14.65 0 0 0 -2.38,-8.77 z m -6.46,-5.22 a 9.64,9.64 0 0 1 8,3.81 q 3,3.84 3,10.18 0,6.56 -3,10.35 a 9.64,9.64 0 0 1 -8,3.81 9.76,9.76 0 0 1 -8.13,-3.79 q -3,-3.8 -3,-10.37 0,-6.4 3,-10.2 a 9.76,9.76 0 0 1 8.13,-3.79 z"
             transform="translate(-65.97,-25.58)" />
        </g>
        <g
           style="fill:#000000"
           id="text258">
          <path
             style="fill:#000000;stroke:#ffffff;stroke-miterlimit:10"
             inkscape:connector-curvature="0"
             id="path3428"
             class="cls-3"
             d="m 678.79,503.83 v 16.11 H 676.6 V 504 c 0,-3.47 -0.56,-5.9 -1.67,-7.32 a 5.88,5.88 0 0 0 -4.91,-2.12 9.63,9.63 0 0 0 -6.48,2.29 q -2.71,2.31 -2.72,8 v 15.09 h -2.19 v -26.7 h 2.19 v 5 a 9.15,9.15 0 0 1 3.07,-3.72 10.75,10.75 0 0 1 6.23,-1.93 8,8 0 0 1 6.31,2.69 q 2.36,2.72 2.36,8.55 z"
             transform="translate(-65.97,-25.58)" />
        </g>
      </g>
    </g>
    <g
       style="fill:#000000"
       id="g4829"
       transform="matrix(0.167821,0,0,0.167821,302.69147,87.037389)">
      <path
         style="fill:#000000"
         inkscape:connector-curvature="0"
         class="cls-4"
         d="m 177.84,678 q 7.47,3.75 11.11,5.93 a 20.54,20.54 0 0 1 6.35,6.14 q 2.7,3.93 2.7,10.76 a 19.57,19.57 0 0 1 -7.26,15.64 24.68,24.68 0 0 1 -16.35,6.13 29.89,29.89 0 0 1 -10.09,-1.48 81,81 0 0 1 -9.78,-4.47 l -0.31,-15.95 a 31.46,31.46 0 0 0 6.94,12.3 q 4.69,5.1 12.49,5.1 7.8,0 11.12,-4.54 a 16,16 0 0 0 3.41,-9.78 q 0,-6.81 -3.41,-9.4 -3.41,-2.59 -14.64,-8.11 -8.13,-4.07 -11.85,-8.49 a 16.23,16.23 0 0 1 -3.75,-10.84 q 0,-9 6.79,-13.94 a 25.3,25.3 0 0 1 15.33,-5 q 9.08,0 15.27,4.13 l 0.53,14.05 a 19.45,19.45 0 0 0 -5.77,-9.36 15.85,15.85 0 0 0 -11.53,-4.47 q -6.09,0 -9,3.58 a 12.09,12.09 0 0 0 -2.89,7.73 9.41,9.41 0 0 0 2.95,7.34 q 2.88,2.61 11.64,7 z"
         transform="translate(-65.97,-25.58)"
         id="path4781" />
      <path
         style="fill:#000000"
         inkscape:connector-curvature="0"
         class="cls-4"
         d="m 225.67,671.18 a 21.75,21.75 0 0 1 20.78,13.34 31.44,31.44 0 0 1 2.55,12.48 27.5,27.5 0 0 1 -3,12.27 24.56,24.56 0 0 1 -8.33,9.71 21.21,21.21 0 0 1 -12.17,3.62 q -11.53,0 -17.47,-7.84 a 29,29 0 0 1 -3,-30.19 24,24 0 0 1 8.33,-9.71 21.64,21.64 0 0 1 12.39,-3.68 z m -1,3.88 q -6.63,0.32 -9.94,6.77 -3.31,6.45 -3,15.71 0.33,9 4.23,15.12 3.9,6.12 10.2,5.75 6.61,-0.31 10,-6.55 3.39,-6.24 3,-15.6 a 38.41,38.41 0 0 0 -2,-10.76 19,19 0 0 0 -4.75,-7.61 10.53,10.53 0 0 0 -7.8,-2.83 z"
         transform="translate(-65.97,-25.58)"
         id="path4783" />
      <path
         style="fill:#000000"
         inkscape:connector-curvature="0"
         class="cls-4"
         d="m 314.47,662.63 v 9.82 h 14.74 l -3.73,4.48 H 314.26 V 707 q 0,11.1 9.72,11.09 a 8.64,8.64 0 0 0 3.95,-0.65 18,18 0 0 0 2.88,-2.14 q 0,2.25 -3.31,4.78 a 12.09,12.09 0 0 1 -7.5,2.52 14.56,14.56 0 0 1 -10.75,-4.1 q -4.12,-4.11 -4.12,-11.37 v -30.19 h -4.6 l 13.92,-14.31 z"
         transform="translate(-65.97,-25.58)"
         id="path4785" />
      <path
         style="fill:#000000"
         inkscape:connector-curvature="0"
         class="cls-4"
         d="m 362.9,671.16 a 17.11,17.11 0 0 1 11.38,3.9 q 4.65,3.88 4.64,10.94 v 31.6 a 3.77,3.77 0 0 0 0.54,2.35 10.2,10.2 0 0 0 2.24,1.71 H 367 q 2.9,-1.6 2.89,-4.07 v -28.12 a 13.82,13.82 0 0 0 -2.62,-8.78 q -2.62,-3.32 -8.81,-3.31 a 15.18,15.18 0 0 0 -11.65,5.56 v 34.65 a 3.65,3.65 0 0 0 0.64,2.24 7.66,7.66 0 0 0 2.35,1.83 h -15.13 c 1.86,-1 2.78,-2.36 2.78,-4.06 v -62.75 a 3.47,3.47 0 0 0 -0.9,-2.77 10.68,10.68 0 0 0 -2.84,-1.5 L 346.77,648 v 30.77 q 8.76,-7.62 16.13,-7.62 z"
         transform="translate(-65.97,-25.58)"
         id="path4787" />
      <path
         style="fill:#000000"
         inkscape:connector-curvature="0"
         class="cls-4"
         d="m 490,671.18 a 17.17,17.17 0 0 1 11,3.82 q 4.86,3.86 4.87,10.79 v 31.81 a 3.65,3.65 0 0 0 0.69,2.29 7.41,7.41 0 0 0 2.08,1.76 h -14.88 c 2,-1.2 3,-2.56 3,-4 V 689 a 13,13 0 0 0 -2.66,-8.49 c -1.79,-2.17 -4.63,-3.26 -8.55,-3.26 q -6.73,0 -11.54,6.73 a 4.33,4.33 0 0 1 0.22,1.6 v 32 a 3.69,3.69 0 0 0 0.69,2.29 7.55,7.55 0 0 0 2.08,1.76 h -14.89 q 2.77,-1.6 2.77,-4 v -29.07 q 0,-11.31 -11.1,-11.32 -6.31,0 -10.79,5.45 v 34.93 a 3.36,3.36 0 0 0 0.64,2.24 10.71,10.71 0 0 0 2.35,1.81 H 431 q 2.78,-1.6 2.78,-4 V 678 a 3.67,3.67 0 0 0 -1.06,-3 7.31,7.31 0 0 0 -2.78,-1.28 l 13,-2.56 v 7.3 a 53.36,53.36 0 0 1 7.21,-5.13 16.19,16.19 0 0 1 8.39,-2.17 17.36,17.36 0 0 1 8.87,2.44 12.3,12.3 0 0 1 5.68,6.88 26.11,26.11 0 0 1 7.53,-6.62 18.06,18.06 0 0 1 9.34,-2.7 z"
         transform="translate(-65.97,-25.58)"
         id="path4789" />
      <path
         style="fill:#000000"
         inkscape:connector-curvature="0"
         class="cls-4"
         d="m 575.66,662.63 v 9.82 h 14.74 l -3.73,4.48 H 575.44 V 707 q 0,11.1 9.72,11.09 a 8.61,8.61 0 0 0 4,-0.65 17.58,17.58 0 0 0 2.89,-2.14 q 0,2.25 -3.31,4.78 a 12.09,12.09 0 0 1 -7.48,2.51 14.56,14.56 0 0 1 -10.75,-4.1 q -4.12,-4.11 -4.13,-11.37 v -30.18 h -4.59 l 13.92,-14.31 z"
         transform="translate(-65.97,-25.58)"
         id="path4791" />
      <path
         style="fill:#000000"
         inkscape:connector-curvature="0"
         class="cls-4"
         d="m 615.54,671.18 a 22,22 0 0 1 12.92,3.74 22.23,22.23 0 0 1 7.85,9.6 31.44,31.44 0 0 1 2.51,12.48 27.75,27.75 0 0 1 -3,12.27 24.8,24.8 0 0 1 -8.32,9.73 21.24,21.24 0 0 1 -12.18,3.62 q -11.54,0 -17.47,-7.84 a 29,29 0 0 1 -3,-30.19 24.09,24.09 0 0 1 8.33,-9.71 21.67,21.67 0 0 1 12.4,-3.68 z m -1,3.88 c -4.41,0.21 -7.73,2.47 -9.93,6.77 -2.2,4.3 -3.21,9.53 -3,15.71 0.21,6.18 1.61,11.07 4.21,15.12 2.6,4.05 6,6 10.21,5.75 q 6.61,-0.31 10,-6.55 3.39,-6.24 3,-15.6 a 38.41,38.41 0 0 0 -2,-10.76 19,19 0 0 0 -4.75,-7.61 10.53,10.53 0 0 0 -7.8,-2.83 z"
         transform="translate(-65.97,-25.58)"
         id="path4793" />
      <path
         style="fill:#000000"
         inkscape:connector-curvature="0"
         class="cls-4"
         d="m 669.07,671.18 a 17.56,17.56 0 0 1 7.69,1.81 14.71,14.71 0 0 1 5.93,5.08 13.91,13.91 0 0 1 2.19,7.95 v 31.6 a 3.41,3.41 0 0 0 0.48,2 14.16,14.16 0 0 0 2.29,2 H 673 a 4.54,4.54 0 0 0 2.78,-4.06 V 689.8 q 0,-12.4 -11.33,-12.41 a 12.25,12.25 0 0 0 -5.93,1.61 16.17,16.17 0 0 0 -4.86,4 v 34.65 a 3.64,3.64 0 0 0 0.7,2.3 7.27,7.27 0 0 0 2.08,1.76 H 641.7 a 4.52,4.52 0 0 0 2.67,-4 V 678 c 0,-2.13 -1.17,-3.63 -3.53,-4.49 l 12.85,-2.34 v 7.61 a 28.08,28.08 0 0 1 6.78,-5.19 17.13,17.13 0 0 1 8.6,-2.42 z"
         transform="translate(-65.97,-25.58)"
         id="path4795" />
      <path
         style="fill:#000000"
         inkscape:connector-curvature="0"
         class="cls-4"
         d="m 557.18,685.32 a 22.26,22.26 0 0 0 -5,-8.11 21.36,21.36 0 0 0 -6.62,-4.54 19,19 0 0 0 -15.86,0.51 19.18,19.18 0 0 0 -6,4.52 v -6.52 L 510.9,674 c 2.35,0.71 3.53,2.21 3.53,4.48 V 742 a 4.13,4.13 0 0 1 -2.78,4.06 h 14.87 a 4.26,4.26 0 0 1 -2.77,-4.08 V 682.3 a 14.84,14.84 0 0 1 4.59,-3.72 12.8,12.8 0 0 1 6.19,-1.5 14,14 0 0 1 10,4.48 q 4.54,4.47 4.54,15.44 0,10.13 -4.22,15.76 a 13.44,13.44 0 0 1 -11.37,5.65 c -3.49,0 -5.1,-0.72 -8.11,-3.29 l 2.45,6.57 a 25.92,25.92 0 0 0 6.94,0.91 q 11.21,0 17.78,-8.11 a 27.77,27.77 0 0 0 6.57,-17.92 31.54,31.54 0 0 0 -1.92,-11.25 z"
         transform="translate(-65.97,-25.58)"
         id="path4797" />
      <path
         style="fill:#000000"
         inkscape:connector-curvature="0"
         class="cls-4"
         d="m 280.86,715 a 12.56,12.56 0 0 1 -6.09,1.39 9.94,9.94 0 0 1 -7.85,-3.64 c -2.11,-2.42 -3.15,-5.8 -3.15,-10.15 v -31.42 l -13,2.56 c 2.42,0.79 3.63,2.2 3.63,4.27 v 24.54 q 0,10.56 5.14,15.3 a 16.13,16.13 0 0 0 11.13,4.75 19.57,19.57 0 0 0 12.63,-4.6 l 1.88,-6.24 a 18.42,18.42 0 0 1 -4.32,3.26 z"
         transform="translate(-65.97,-25.58)"
         id="path4799" />
      <path
         style="fill:#000000"
         inkscape:connector-curvature="0"
         class="cls-4"
         d="m 295.17,713.11 v -41.93 l -12.82,2.57 a 6.56,6.56 0 0 1 2.72,1.28 3.73,3.73 0 0 1 1,3 v 32.57 l 0.17,4.61 a 0.12,0.12 0 0 1 0.05,-0.05 9.64,9.64 0 0 0 0.85,4.68 8,8 0 0 0 3,2.77 l 9.29,-3.41 q -4.28,-0.63 -4.27,-6.08 z"
         transform="translate(-65.97,-25.58)"
         id="path4801" />
      <path
         style="fill:#000000"
         inkscape:connector-curvature="0"
         class="cls-4"
         d="m 424.82,717.54 a 8.89,8.89 0 0 1 -0.48,-3.41 v -28.56 q 0,-8.31 -5.14,-11.35 a 22.46,22.46 0 0 0 -11.66,-3 30.75,30.75 0 0 0 -16.88,5.31 l 0.22,13.18 a 29.49,29.49 0 0 1 5.77,-10.57 12.33,12.33 0 0 1 9.61,-3.89 c 3.13,0 5.45,0.92 6.95,2.73 a 10,10 0 0 1 2.24,6.56 c 0,2.7 -0.15,4.2 -0.43,4.48 a 8.61,8.61 0 0 1 -4.06,2.46 q -2.67,0.85 -9,2.72 a 38.51,38.51 0 0 0 -8.7,3.36 q -7.16,4.28 -7.16,12.06 a 14.39,14.39 0 0 0 3.26,8.71 q 3.26,4.31 9.56,4.31 a 21.17,21.17 0 0 0 13.66,-5.06 l 1.95,-5.6 a 16.2,16.2 0 0 1 -11.23,4.61 7.75,7.75 0 0 1 -5.87,-2.34 8.9,8.9 0 0 1 -2.25,-6.46 8,8 0 0 1 2.25,-5.94 19.16,19.16 0 0 1 6.62,-3.92 93.38,93.38 0 0 0 11.43,-4 V 711 c 0,0 0.08,3.71 0.11,3.69 0.06,2.52 0.35,4.21 0.85,5.08 a 11,11 0 0 0 2.89,2.9 l 8.24,-3.67 c -1.49,-0.29 -2.4,-0.79 -2.72,-1.5 z"
         transform="translate(-65.97,-25.58)"
         id="path4803" />
      <path
         style="fill:#000000"
         inkscape:connector-curvature="0"
         class="cls-4"
         d="m 368.41,632.52 v 17.34 c 0,2.83 1,7.18 6.77,7.18 5.49,0 7.21,-3.48 7.21,-7.18 l -0.16,-17.34 a 1.9,1.9 0 0 0 -1.06,-1.85 h 4.54 a 1.93,1.93 0 0 0 -1.1,1.85 l -0.13,17.18 c 0,6.72 -4.35,9.22 -9.47,9.22 -4.51,0 -10.53,-2.21 -10.53,-9.14 v -17.26 a 2.13,2.13 0 0 0 -1.27,-1.85 h 6.55 a 2.14,2.14 0 0 0 -1.35,1.85 z"
         transform="translate(-65.97,-25.58)"
         id="path4805" />
      <path
         style="fill:#000000"
         inkscape:connector-curvature="0"
         class="cls-4"
         d="m 410.31,632.52 a 2,2 0 0 0 -1.07,-1.85 h 4.26 a 1.93,1.93 0 0 0 -1.1,1.85 v 26.81 c 0,0 -19.64,-23.7 -19.64,-24.1 v 21.48 a 1.92,1.92 0 0 0 1.15,1.85 h -4.35 a 2.06,2.06 0 0 0 1.07,-1.85 v -22.63 c 0,-1.19 0,-1.27 -0.49,-1.93 a 5.29,5.29 0 0 0 -1.89,-1.48 h 5.86 l 16.2,20 z"
         transform="translate(-65.97,-25.58)"
         id="path4807" />
      <path
         style="fill:#000000"
         inkscape:connector-curvature="0"
         class="cls-4"
         d="m 423.58,630.67 a 2,2 0 0 0 -1.06,1.85 v 24.19 a 2.07,2.07 0 0 0 1.06,1.85 h -6.06 a 2,2 0 0 0 1.1,-1.85 v -24.19 a 1.93,1.93 0 0 0 -1.1,-1.85 z"
         transform="translate(-65.97,-25.58)"
         id="path4809" />
      <path
         style="fill:#000000"
         inkscape:connector-curvature="0"
         class="cls-4"
         d="m 447.09,632.64 c 0.37,-1 0.29,-1.55 -0.7,-2 h 4.51 c -1.07,0.7 -1,0.91 -1.48,2 -0.66,1.6 -10.21,27 -10.21,27 0,0 -10.53,-25.46 -11.23,-27 a 3.44,3.44 0 0 0 -2.13,-2 h 7.46 c -1.06,0.42 -1.06,1.4 -0.78,2.42 0.09,0.13 7.34,19 7.34,19 0,0 7.22,-19.3 7.22,-19.47 z"
         transform="translate(-65.97,-25.58)"
         id="path4811" />
      <path
         style="fill:#000000"
         inkscape:connector-curvature="0"
         class="cls-4"
         d="m 468.06,634.31 a 4,4 0 0 0 -3.45,-1.43 l -7.05,-0.08 v 9.27 h 6.69 a 1.92,1.92 0 0 0 1.43,-1.15 v 4.43 a 1.94,1.94 0 0 0 -1.43,-1.15 h -6.69 v 12.1 a 42.47,42.47 0 0 0 4.76,0.25 c 4.42,0 6,0 7.5,-2.58 l -0.86,4.59 h -16.48 a 1.91,1.91 0 0 0 1.23,-1.85 v -24.19 a 2,2 0 0 0 -1.15,-1.85 H 468 l 0.08,3.64 z"
         transform="translate(-65.97,-25.58)"
         id="path4813" />
      <path
         style="fill:#000000"
         inkscape:connector-curvature="0"
         class="cls-4"
         d="m 483.14,644.41 a 6.45,6.45 0 0 1 4,3.08 c 0,0 4.34,7.5 6.15,9.42 a 7.73,7.73 0 0 0 2.62,1.65 l -4.18,0.07 a 4.24,4.24 0 0 1 -3.36,-1.92 c -2.1,-3.08 -3.57,-5.33 -5,-7.63 -1.07,-1.64 -1.93,-3.4 -4.06,-3.4 h -2.41 v 11 a 2.13,2.13 0 0 0 1.16,1.85 h -6.12 a 2.07,2.07 0 0 0 1.11,-1.85 v -24.16 a 2,2 0 0 0 -1.11,-1.85 h 7.71 c 8.21,0 10,4.27 10,6.85 0,4.43 -3.94,6.68 -6.48,6.89 z m -6.24,-12 v 11.11 c 0,0 1.32,0.08 2.39,0.08 3.12,0 6.19,-1.68 6.19,-6 a 5.17,5.17 0 0 0 -5.49,-5.34 c -1.85,0 -3.09,0.13 -3.09,0.13 z"
         transform="translate(-65.97,-25.58)"
         id="path4815" />
      <path
         style="fill:#000000"
         inkscape:connector-curvature="0"
         class="cls-4"
         d="m 512.74,650.56 c 0,5.12 -4.67,8.36 -9.06,8.36 a 14.78,14.78 0 0 1 -7.62,-2.29 l -0.13,-6.15 c 0.86,2.95 3.08,6.72 7.46,6.72 a 5.27,5.27 0 0 0 5.58,-5.49 c 0,-3.94 -3,-4.72 -6.93,-6.73 -3.93,-2.01 -6,-4.06 -6,-7.42 0,-4.92 4.59,-7.26 8.48,-7.26 a 11.05,11.05 0 0 1 5.86,1.56 l 0.21,5.41 c -0.49,-2 -2.79,-5.33 -6.64,-5.33 a 4.22,4.22 0 0 0 -4.55,4.35 c 0,2.58 1.63,3.57 5.58,5.5 3.95,1.93 7.74,3.28 7.74,8.77 z"
         transform="translate(-65.97,-25.58)"
         id="path4817" />
      <path
         style="fill:#000000"
         inkscape:connector-curvature="0"
         class="cls-4"
         d="m 521.43,630.67 a 2,2 0 0 0 -1.06,1.85 v 24.19 a 2.07,2.07 0 0 0 1.06,1.85 h -6.06 a 2,2 0 0 0 1.1,-1.85 v -24.19 a 1.93,1.93 0 0 0 -1.1,-1.85 z"
         transform="translate(-65.97,-25.58)"
         id="path4819" />
      <path
         style="fill:#000000"
         inkscape:connector-curvature="0"
         class="cls-4"
         d="m 536.55,632.64 v 24.07 a 2,2 0 0 0 1.07,1.85 h -6.07 a 1.93,1.93 0 0 0 1.07,-1.85 v -24.07 c -3.07,0 -6.73,0.28 -6.73,0.28 a 2.85,2.85 0 0 0 -2.13,1.6 v -3.85 h 21.57 v 3.85 a 3,3 0 0 0 -2.13,-1.6 c 0,0 -3.69,-0.28 -6.69,-0.28 z"
         transform="translate(-65.97,-25.58)"
         id="path4821" />
      <path
         style="fill:#000000"
         inkscape:connector-curvature="0"
         class="cls-4"
         d="m 569.43,630.67 a 4.52,4.52 0 0 0 -2.42,2.26 l -6.64,12.42 v 11.36 c 0,0.9 0.77,1.47 1.51,1.85 h -7 c 0.66,-0.38 1.51,-0.87 1.51,-1.85 v -11.2 l -7.82,-12.87 a 5,5 0 0 0 -2.3,-2 h 7.91 c -0.94,0.42 -1.72,0.62 -0.66,2.55 l 5.75,10.12 5.57,-10.7 c 0.58,-1.1 0.29,-1.64 -0.85,-2 z"
         transform="translate(-65.97,-25.58)"
         id="path4823" />
      <path
         style="fill:#000000"
         inkscape:connector-curvature="0"
         class="cls-4"
         d="m 594.7,658.92 c -6.85,-0.16 -12.9,-6.27 -12.72,-14.72 0.18,-6.64 5,-14.18 13.42,-13.9 5.84,0.13 12.66,5.21 12.48,14.57 -0.18,9.36 -7.28,14.26 -13.18,14 z M 586.28,644 c 0,9 4.44,13 8.79,13 5.22,0 8.48,-4.67 8.48,-12.06 0.08,-7.91 -3.26,-13 -8.55,-13 -5.29,0 -8.72,4.47 -8.72,12 z"
         transform="translate(-65.97,-25.58)"
         id="path4825" />
      <path
         style="fill:#000000"
         inkscape:connector-curvature="0"
         class="cls-4"
         d="m 616.78,658.56 h -6.23 a 1.85,1.85 0 0 0 1.14,-1.85 v -24.19 a 2,2 0 0 0 -1.14,-1.85 h 16.35 v 3.74 c -0.57,-1 -1.48,-1.56 -3.49,-1.56 -1,-0.08 -7.83,-0.16 -7.83,-0.16 l 0.06,9.4 h 6.77 a 1.94,1.94 0 0 0 1.43,-1.15 v 4.43 a 1.94,1.94 0 0 0 -1.43,-1.15 h -6.77 l -0.09,12.49 a 1.92,1.92 0 0 0 1.24,1.85 z"
         transform="translate(-65.97,-25.58)"
         id="path4827" />
    </g>
    <text
       xml:space="preserve"
       style="font-style:normal;font-variant:normal;font-weight:normal;font-stretch:normal;font-size:6.3499999px;line-height:125%;font-family:'Open Sans';-inkscape-font-specification:'Open Sans';text-align:start;letter-spacing:0px;word-spacing:0px;text-anchor:start;fill:#000000;fill-opacity:1;stroke:none;stroke-width:0.26458332px;stroke-linecap:butt;stroke-linejoin:miter;stroke-opacity:1"
       x="216.95833"
       y="159.41666"
       id="text5005"><tspan
         sodipodi:role="line"
         id="tspan5003"
         x="216.95833"
         y="159.41666"
         style="font-style:normal;font-variant:normal;font-weight:normal;font-stretch:normal;font-family:'Open Sans Condensed';-inkscape-font-specification:'Open Sans Condensed, ';text-align:start;text-anchor:start;stroke-width:0.26458332px">Student robotics is only possible with the help of our sponsors</tspan></text>
    <text
       xml:space="preserve"
       style="font-style:normal;font-variant:normal;font-weight:normal;font-stretch:normal;font-size:4.23333311px;line-height:125%;font-family:'Open Sans';-inkscape-font-specification:'Open Sans';text-align:start;letter-spacing:0px;word-spacing:0px;text-anchor:start;fill:#000000;fill-opacity:1;stroke:none;stroke-width:0.26458332px;stroke-linecap:butt;stroke-linejoin:miter;stroke-opacity:1"
       x="222.25"
       y="212.33333"
       id="text5009"><tspan
         sodipodi:role="line"
         id="tspan5007"
         x="222.25"
         y="216.08427"
         style="font-size:4.23333311px;text-align:start;text-anchor:start;stroke-width:0.26458332px" /></text>
    <flowRoot
       xml:space="preserve"
       id="flowRoot5011"
       style="font-style:normal;font-variant:normal;font-weight:normal;font-stretch:normal;font-size:24px;line-height:125%;font-family:'Open Sans';-inkscape-font-specification:'Open Sans';text-align:center;letter-spacing:0px;word-spacing:0px;text-anchor:middle;fill:#000000;fill-opacity:1;stroke:none;stroke-width:1px;stroke-linecap:butt;stroke-linejoin:miter;stroke-opacity:1"
       transform="matrix(0.26458333,0,0,0.26458333,0,149)"><flowRegion
         id="flowRegion5013"><rect
           id="rect5015"
           width="195"
           height="150"
           x="830"
           y="204.37006" /></flowRegion><flowPara
         id="flowPara5017"></flowPara></flowRoot>    <text
       xml:space="preserve"
       style="font-style:normal;font-variant:normal;font-weight:normal;font-stretch:normal;font-size:6.3499999px;line-height:125%;font-family:'Open Sans Condensed';-inkscape-font-specification:'Open Sans Condensed, ';text-align:start;letter-spacing:0px;word-spacing:0px;text-anchor:start;fill:#000000;fill-opacity:1;stroke:none;stroke-width:0.26458332px;stroke-linecap:butt;stroke-linejoin:miter;stroke-opacity:1"
       x="219.60417"
       y="177.9375"
       id="text5029"><tspan
         sodipodi:role="line"
         id="tspan5027"
         x="219.60417"
         y="177.9375"
         style="font-style:normal;font-variant:normal;font-weight:normal;font-stretch:normal;font-family:'Open Sans Condensed';-inkscape-font-specification:'Open Sans Condensed, ';text-align:start;text-anchor:start;stroke-width:0.26458332px">Main Sponsors</tspan></text>
    <text
       xml:space="preserve"
       style="font-style:normal;font-variant:normal;font-weight:normal;font-stretch:normal;font-size:6.3499999px;line-height:125%;font-family:'Open Sans Condensed';-inkscape-font-specification:'Open Sans Condensed, ';text-align:start;letter-spacing:0px;word-spacing:0px;text-anchor:start;fill:#000000;fill-opacity:1;stroke:none;stroke-width:0.26458332px;stroke-linecap:butt;stroke-linejoin:miter;stroke-opacity:1"
       x="219.60417"
       y="228.20833"
       id="text5029-9"><tspan
         sodipodi:role="line"
         id="tspan5027-9"
         x="219.60417"
         y="228.20833"
         style="font-style:normal;font-variant:normal;font-weight:normal;font-stretch:normal;font-family:'Open Sans Condensed';-inkscape-font-specification:'Open Sans Condensed, ';text-align:start;text-anchor:start;stroke-width:0.26458332px">Event Sponsors</tspan></text>
  </g>
</svg>
